<svg width="2007" height="559" viewBox="0 0 2007 559" fill="none" xmlns="http://www.w3.org/2000/svg">
<path d="M830.067 346.331L805.897 420H786.427L819.447 331.133H831.837L830.067 346.331ZM850.148 420L825.917 346.331L823.964 331.133H836.476L869.679 420H850.148ZM849.049 386.919V401.262H802.113V386.919H849.049ZM905.202 420H885.854L885.976 405.718H905.202C910.003 405.718 914.052 404.639 917.348 402.483C920.644 400.286 923.126 397.091 924.794 392.9C926.503 388.709 927.357 383.643 927.357 377.703V373.369C927.357 368.812 926.869 364.804 925.893 361.345C924.957 357.887 923.553 354.977 921.681 352.617C919.809 350.257 917.51 348.487 914.784 347.307C912.058 346.086 908.925 345.476 905.385 345.476H885.487V331.133H905.385C911.326 331.133 916.758 332.15 921.681 334.185C926.645 336.178 930.938 339.047 934.56 342.791C938.181 346.534 940.968 351.01 942.921 356.218C944.915 361.386 945.912 367.144 945.912 373.491V377.703C945.912 384.01 944.915 389.767 942.921 394.976C940.968 400.184 938.181 404.66 934.56 408.403C930.979 412.106 926.686 414.975 921.681 417.009C916.717 419.003 911.224 420 905.202 420ZM896.229 331.133V420H877.919V331.133H896.229ZM989.918 401.445L1010.85 331.133H1031.24L1000.29 420H986.867L989.918 401.445ZM970.631 331.133L991.505 401.445L994.679 420H981.129L950.368 331.133H970.631ZM1059.01 331.133V420H1040.76V331.133H1059.01ZM1127.67 390.52H1145.92C1145.56 396.501 1143.91 401.812 1140.98 406.45C1138.09 411.089 1134.04 414.71 1128.83 417.314C1123.67 419.919 1117.44 421.221 1110.16 421.221C1104.46 421.221 1099.35 420.244 1094.84 418.291C1090.32 416.297 1086.46 413.449 1083.24 409.746C1080.07 406.043 1077.65 401.567 1075.98 396.318C1074.31 391.069 1073.48 385.19 1073.48 378.679V372.515C1073.48 366.004 1074.33 360.125 1076.04 354.875C1077.79 349.586 1080.27 345.09 1083.49 341.387C1086.74 337.684 1090.63 334.836 1095.14 332.842C1099.66 330.848 1104.71 329.851 1110.28 329.851C1117.69 329.851 1123.93 331.194 1129.02 333.879C1134.14 336.565 1138.11 340.268 1140.92 344.988C1143.77 349.708 1145.48 355.079 1146.05 361.101H1127.74C1127.53 357.52 1126.82 354.489 1125.6 352.007C1124.38 349.484 1122.53 347.592 1120.05 346.331C1117.6 345.028 1114.35 344.377 1110.28 344.377C1107.23 344.377 1104.56 344.947 1102.28 346.086C1100.01 347.226 1098.09 348.955 1096.55 351.274C1095 353.594 1093.84 356.523 1093.07 360.063C1092.34 363.563 1091.97 367.673 1091.97 372.393V378.679C1091.97 383.277 1092.32 387.326 1093.01 390.825C1093.7 394.284 1094.76 397.214 1096.18 399.614C1097.65 401.974 1099.52 403.765 1101.8 404.985C1104.12 406.165 1106.9 406.755 1110.16 406.755C1113.98 406.755 1117.14 406.145 1119.62 404.924C1122.1 403.704 1123.99 401.893 1125.29 399.492C1126.64 397.091 1127.43 394.101 1127.67 390.52ZM1217.58 405.718V420H1170.28V405.718H1217.58ZM1176.26 331.133V420H1157.95V331.133H1176.26ZM1211.42 367.327V381.243H1170.28V367.327H1211.42ZM1217.52 331.133V345.476H1170.28V331.133H1217.52ZM1310.9 390.52H1329.15C1328.79 396.501 1327.14 401.812 1324.21 406.45C1321.32 411.089 1317.27 414.71 1312.06 417.314C1306.89 419.919 1300.67 421.221 1293.39 421.221C1287.69 421.221 1282.58 420.244 1278.07 418.291C1273.55 416.297 1269.68 413.449 1266.47 409.746C1263.29 406.043 1260.87 401.567 1259.21 396.318C1257.54 391.069 1256.7 385.19 1256.7 378.679V372.515C1256.7 366.004 1257.56 360.125 1259.27 354.875C1261.02 349.586 1263.5 345.09 1266.71 341.387C1269.97 337.684 1273.85 334.836 1278.37 332.842C1282.89 330.848 1287.93 329.851 1293.51 329.851C1300.91 329.851 1307.16 331.194 1312.25 333.879C1317.37 336.565 1321.34 340.268 1324.15 344.988C1327 349.708 1328.7 355.079 1329.27 361.101H1310.96C1310.76 357.52 1310.05 354.489 1308.83 352.007C1307.61 349.484 1305.76 347.592 1303.27 346.331C1300.83 345.028 1297.58 344.377 1293.51 344.377C1290.46 344.377 1287.79 344.947 1285.51 346.086C1283.23 347.226 1281.32 348.955 1279.77 351.274C1278.23 353.594 1277.07 356.523 1276.3 360.063C1275.56 363.563 1275.2 367.673 1275.2 372.393V378.679C1275.2 383.277 1275.54 387.326 1276.23 390.825C1276.93 394.284 1277.98 397.214 1279.41 399.614C1280.87 401.974 1282.74 403.765 1285.02 404.985C1287.34 406.165 1290.13 406.755 1293.39 406.755C1297.21 406.755 1300.36 406.145 1302.85 404.924C1305.33 403.704 1307.22 401.893 1308.52 399.492C1309.86 397.091 1310.66 394.101 1310.9 390.52ZM1414.17 373.491V377.703C1414.17 384.457 1413.26 390.52 1411.43 395.891C1409.6 401.262 1407.01 405.84 1403.68 409.624C1400.34 413.368 1396.35 416.236 1391.71 418.23C1387.11 420.224 1382.01 421.221 1376.39 421.221C1370.82 421.221 1365.71 420.224 1361.07 418.23C1356.48 416.236 1352.49 413.368 1349.11 409.624C1345.73 405.84 1343.11 401.262 1341.24 395.891C1339.41 390.52 1338.49 384.457 1338.49 377.703V373.491C1338.49 366.696 1339.41 360.633 1341.24 355.303C1343.07 349.932 1345.65 345.354 1348.99 341.57C1352.37 337.786 1356.35 334.897 1360.95 332.903C1365.59 330.909 1370.7 329.912 1376.27 329.912C1381.89 329.912 1386.99 330.909 1391.59 332.903C1396.23 334.897 1400.22 337.786 1403.55 341.57C1406.93 345.354 1409.54 349.932 1411.37 355.303C1413.24 360.633 1414.17 366.696 1414.17 373.491ZM1395.68 377.703V373.369C1395.68 368.649 1395.25 364.499 1394.4 360.918C1393.54 357.337 1392.28 354.326 1390.61 351.885C1388.95 349.443 1386.91 347.612 1384.51 346.392C1382.11 345.13 1379.36 344.5 1376.27 344.5C1373.18 344.5 1370.43 345.13 1368.03 346.392C1365.67 347.612 1363.66 349.443 1361.99 351.885C1360.36 354.326 1359.12 357.337 1358.27 360.918C1357.41 364.499 1356.98 368.649 1356.98 373.369V377.703C1356.98 382.382 1357.41 386.532 1358.27 390.154C1359.12 393.735 1360.38 396.766 1362.05 399.248C1363.72 401.689 1365.75 403.541 1368.15 404.802C1370.55 406.064 1373.3 406.694 1376.39 406.694C1379.49 406.694 1382.23 406.064 1384.63 404.802C1387.03 403.541 1389.05 401.689 1390.68 399.248C1392.3 396.766 1393.54 393.735 1394.4 390.154C1395.25 386.532 1395.68 382.382 1395.68 377.703ZM1435.72 331.133H1451.22L1474.05 396.379L1496.88 331.133H1512.38L1480.27 420H1467.82L1435.72 331.133ZM1427.36 331.133H1442.8L1445.61 394.731V420H1427.36V331.133ZM1505.3 331.133H1520.8V420H1502.49V394.731L1505.3 331.133ZM1571.46 388.323H1548.82V374.041H1571.46C1574.96 374.041 1577.81 373.471 1580.01 372.332C1582.2 371.152 1583.81 369.524 1584.83 367.449C1585.85 365.374 1586.35 363.034 1586.35 360.43C1586.35 357.785 1585.85 355.323 1584.83 353.044C1583.81 350.766 1582.2 348.935 1580.01 347.551C1577.81 346.168 1574.96 345.476 1571.46 345.476H1555.17V420H1536.85V331.133H1571.46C1578.42 331.133 1584.38 332.394 1589.34 334.917C1594.35 337.399 1598.17 340.837 1600.82 345.232C1603.46 349.626 1604.79 354.652 1604.79 360.308C1604.79 366.045 1603.46 371.009 1600.82 375.2C1598.17 379.391 1594.35 382.626 1589.34 384.905C1584.38 387.183 1578.42 388.323 1571.46 388.323ZM1643.42 346.331L1619.25 420H1599.78L1632.8 331.133H1645.19L1643.42 346.331ZM1663.5 420L1639.27 346.331L1637.32 331.133H1649.83L1683.03 420H1663.5ZM1662.4 386.919V401.262H1615.47V386.919H1662.4ZM1763.6 331.133V420H1745.29L1709.58 360.43V420H1691.27V331.133H1709.58L1745.35 390.764V331.133H1763.6ZM1790.03 331.133L1808.58 371.66L1827.14 331.133H1847.1L1817.86 387.651V420H1799.31V387.651L1770.01 331.133H1790.03Z" fill="#FF7401"/>
<path d="M705.982 147.022L669.244 259H639.649L689.84 123.922H708.673L705.982 147.022ZM736.505 259L699.674 147.022L696.705 123.922H715.724L766.192 259H736.505ZM734.835 208.717V230.519H663.492V208.717H734.835ZM851.637 123.922H879.376V213.17C879.376 223.561 877.149 232.312 872.696 239.425C868.305 246.537 862.213 251.887 854.42 255.475C846.689 259.062 837.783 260.855 827.701 260.855C817.62 260.855 808.652 259.062 800.797 255.475C793.004 251.887 786.881 246.537 782.428 239.425C778.036 232.312 775.841 223.561 775.841 213.17V123.922H803.673V213.17C803.673 219.231 804.632 224.179 806.549 228.014C808.466 231.848 811.218 234.662 814.806 236.456C818.455 238.25 822.753 239.146 827.701 239.146C832.773 239.146 837.071 238.25 840.597 236.456C844.184 234.662 846.905 231.848 848.761 228.014C850.678 224.179 851.637 219.231 851.637 213.17V123.922ZM943.761 259H914.352L914.537 237.291H943.761C951.059 237.291 957.213 235.652 962.223 232.374C967.232 229.034 971.005 224.179 973.541 217.809C976.139 211.438 977.438 203.738 977.438 194.708V188.121C977.438 181.194 976.695 175.102 975.211 169.845C973.788 164.588 971.655 160.165 968.81 156.578C965.965 152.991 962.47 150.3 958.326 148.507C954.182 146.651 949.42 145.724 944.039 145.724H913.795V123.922H944.039C953.069 123.922 961.326 125.468 968.81 128.561C976.355 131.591 982.88 135.951 988.385 141.642C993.889 147.332 998.126 154.135 1001.09 162.052C1004.13 169.907 1005.64 178.658 1005.64 188.307V194.708C1005.64 204.295 1004.13 213.046 1001.09 220.963C998.126 228.88 993.889 235.683 988.385 241.373C982.942 247.001 976.417 251.362 968.81 254.454C961.264 257.485 952.914 259 943.761 259ZM930.123 123.922V259H902.291V123.922H930.123ZM1055.46 123.922V259H1027.72V123.922H1055.46ZM1139.14 123.922V259H1111.4V123.922H1139.14ZM1180.7 123.922V145.724H1070.49V123.922H1180.7ZM1309.2 223.653C1309.2 221.241 1308.82 219.076 1308.08 217.159C1307.4 215.18 1306.1 213.386 1304.19 211.778C1302.27 210.108 1299.58 208.469 1296.11 206.861C1292.65 205.253 1288.17 203.583 1282.66 201.852C1276.54 199.872 1270.73 197.646 1265.22 195.172C1259.78 192.698 1254.95 189.822 1250.75 186.544C1246.6 183.204 1243.33 179.339 1240.91 174.947C1238.56 170.556 1237.39 165.453 1237.39 159.64C1237.39 154.011 1238.63 148.909 1241.1 144.332C1243.57 139.693 1247.04 135.735 1251.49 132.457C1255.94 129.117 1261.2 126.55 1267.26 124.757C1273.38 122.963 1280.1 122.066 1287.39 122.066C1297.35 122.066 1306.04 123.86 1313.46 127.447C1320.88 131.035 1326.64 135.951 1330.72 142.198C1334.86 148.445 1336.93 155.589 1336.93 163.629H1309.29C1309.29 159.671 1308.45 156.207 1306.78 153.238C1305.18 150.208 1302.7 147.826 1299.36 146.095C1296.08 144.363 1291.94 143.497 1286.93 143.497C1282.11 143.497 1278.09 144.239 1274.87 145.724C1271.65 147.146 1269.24 149.094 1267.63 151.568C1266.02 153.98 1265.22 156.702 1265.22 159.732C1265.22 162.021 1265.78 164.093 1266.89 165.948C1268.07 167.804 1269.8 169.535 1272.09 171.144C1274.37 172.752 1277.19 174.267 1280.53 175.689C1283.87 177.112 1287.73 178.504 1292.12 179.864C1299.49 182.091 1305.95 184.596 1311.51 187.379C1317.14 190.162 1321.84 193.285 1325.62 196.749C1329.39 200.213 1332.23 204.14 1334.15 208.531C1336.07 212.923 1337.03 217.901 1337.03 223.468C1337.03 229.343 1335.88 234.601 1333.59 239.239C1331.31 243.878 1328 247.805 1323.67 251.021C1319.34 254.238 1314.17 256.681 1308.17 258.351C1302.18 260.021 1295.46 260.855 1288.04 260.855C1281.36 260.855 1274.78 259.99 1268.28 258.258C1261.79 256.464 1255.88 253.774 1250.56 250.187C1245.31 246.599 1241.1 242.022 1237.95 236.456C1234.79 230.89 1233.21 224.303 1233.21 216.695H1261.14C1261.14 220.901 1261.79 224.457 1263.09 227.364C1264.39 230.271 1266.21 232.621 1268.56 234.415C1270.97 236.209 1273.82 237.507 1277.1 238.312C1280.44 239.116 1284.08 239.518 1288.04 239.518C1292.87 239.518 1296.83 238.837 1299.92 237.477C1303.07 236.116 1305.39 234.229 1306.88 231.817C1308.42 229.405 1309.2 226.684 1309.2 223.653ZM1446.59 237.291V259H1374.69V237.291H1446.59ZM1383.79 123.922V259H1355.95V123.922H1383.79ZM1437.22 178.937V200.089H1374.69V178.937H1437.22ZM1446.5 123.922V145.724H1374.69V123.922H1446.5ZM1462.83 123.922H1513.2C1523.53 123.922 1532.41 125.468 1539.83 128.561C1547.31 131.653 1553.07 136.23 1557.09 142.291C1561.11 148.352 1563.12 155.805 1563.12 164.649C1563.12 171.886 1561.88 178.102 1559.41 183.297C1556.99 188.43 1553.56 192.729 1549.11 196.192C1544.72 199.594 1539.55 202.315 1533.61 204.356L1524.8 208.995H1481.01L1480.83 187.286H1513.39C1518.28 187.286 1522.33 186.42 1525.54 184.688C1528.76 182.957 1531.17 180.545 1532.78 177.452C1534.45 174.36 1535.28 170.772 1535.28 166.69C1535.28 162.361 1534.48 158.619 1532.87 155.465C1531.26 152.311 1528.82 149.898 1525.54 148.229C1522.26 146.559 1518.15 145.724 1513.2 145.724H1490.66V259H1462.83V123.922ZM1538.35 259L1507.54 198.79L1536.95 198.604L1568.13 257.701V259H1538.35ZM1631.4 230.797L1663.22 123.922H1694.21L1647.17 259H1626.76L1631.4 230.797ZM1602.08 123.922L1633.81 230.797L1638.63 259H1618.04L1571.28 123.922H1602.08ZM1736.42 123.922V259H1708.68V123.922H1736.42ZM1840.79 214.19H1868.53C1867.97 223.282 1865.46 231.354 1861.01 238.404C1856.62 245.455 1850.47 250.96 1842.55 254.918C1834.69 258.876 1825.23 260.855 1814.16 260.855C1805.5 260.855 1797.74 259.371 1790.88 256.402C1784.01 253.372 1778.13 249.042 1773.25 243.414C1768.42 237.786 1764.74 230.982 1762.21 223.004C1759.67 215.025 1758.4 206.088 1758.4 196.192V186.822C1758.4 176.926 1759.7 167.989 1762.3 160.011C1764.96 151.97 1768.73 145.136 1773.62 139.508C1778.57 133.88 1784.47 129.55 1791.34 126.52C1798.2 123.489 1805.87 121.974 1814.35 121.974C1825.6 121.974 1835.1 124.015 1842.83 128.097C1850.62 132.179 1856.65 137.807 1860.92 144.981C1865.25 152.156 1867.85 160.32 1868.71 169.474H1840.88C1840.57 164.031 1839.49 159.423 1837.63 155.65C1835.78 151.816 1832.96 148.94 1829.19 147.022C1825.48 145.043 1820.53 144.054 1814.35 144.054C1809.71 144.054 1805.66 144.92 1802.19 146.651C1798.73 148.383 1795.82 151.012 1793.47 154.537C1791.12 158.062 1789.36 162.516 1788.18 167.896C1787.07 173.215 1786.51 179.462 1786.51 186.637V196.192C1786.51 203.181 1787.04 209.335 1788.09 214.654C1789.14 219.911 1790.75 224.365 1792.92 228.014C1795.14 231.601 1797.99 234.322 1801.45 236.178C1804.98 237.971 1809.21 238.868 1814.16 238.868C1819.97 238.868 1824.77 237.94 1828.54 236.085C1832.31 234.229 1835.19 231.477 1837.17 227.828C1839.21 224.179 1840.42 219.633 1840.79 214.19ZM1977.44 237.291V259H1905.54V237.291H1977.44ZM1914.63 123.922V259H1886.8V123.922H1914.63ZM1968.07 178.937V200.089H1905.54V178.937H1968.07ZM1977.35 123.922V145.724H1905.54V123.922H1977.35Z" fill="#203563"/>
<path fill-rule="evenodd" clip-rule="evenodd" d="M472.854 558.209L315.037 350.581H377.841L493.806 503.147L473.405 557.791L472.854 558.209Z" fill="#FF7401"/>
<path fill-rule="evenodd" clip-rule="evenodd" d="M305.806 117.186L328.243 146.33L590.192 486.581H527.091L311.061 205.976L216.449 364.581H158.229L286.963 148.773L305.806 117.186Z" fill="#203563"/>
<path fill-rule="evenodd" clip-rule="evenodd" d="M99.0619 118.792C171.528 35.429 297.853 26.5956 381.216 99.0619C409.524 123.67 429.223 154.451 440.077 187.665L496.264 206.88C486.738 152.309 459.074 100.493 414.019 61.3264C309.815 -29.2565 151.909 -18.2146 61.3264 85.989C-29.2565 190.193 -18.2146 348.098 85.989 438.681C131.124 477.916 186.4 498.101 241.863 499.878L243.465 449.904C199.079 448.482 154.931 432.361 118.792 400.946C35.429 328.479 26.5956 202.155 99.0619 118.792Z" fill="#203563"/>
</svg>
