<svg width="2007" height="559" viewBox="0 0 2007 559" fill="none" xmlns="http://www.w3.org/2000/svg">
<path d="M830.067 345.331L805.897 419H786.427L819.447 330.133H831.837L830.067 345.331ZM850.148 419L825.917 345.331L823.964 330.133H836.476L869.679 419H850.148ZM849.049 385.919V400.262H802.113V385.919H849.049ZM905.202 419H885.854L885.976 404.718H905.202C910.003 404.718 914.052 403.639 917.348 401.483C920.644 399.286 923.126 396.091 924.794 391.9C926.503 387.709 927.357 382.643 927.357 376.703V372.369C927.357 367.812 926.869 363.804 925.893 360.345C924.957 356.887 923.553 353.977 921.681 351.617C919.809 349.257 917.51 347.487 914.784 346.307C912.058 345.086 908.925 344.476 905.385 344.476H885.487V330.133H905.385C911.326 330.133 916.758 331.15 921.681 333.185C926.645 335.178 930.938 338.047 934.56 341.791C938.181 345.534 940.968 350.01 942.921 355.218C944.915 360.386 945.912 366.144 945.912 372.491V376.703C945.912 383.01 944.915 388.767 942.921 393.976C940.968 399.184 938.181 403.66 934.56 407.403C930.979 411.106 926.686 413.975 921.681 416.009C916.717 418.003 911.224 419 905.202 419ZM896.229 330.133V419H877.919V330.133H896.229ZM989.918 400.445L1010.85 330.133H1031.24L1000.29 419H986.867L989.918 400.445ZM970.631 330.133L991.505 400.445L994.679 419H981.129L950.368 330.133H970.631ZM1059.01 330.133V419H1040.76V330.133H1059.01ZM1127.67 389.52H1145.92C1145.56 395.501 1143.91 400.812 1140.98 405.45C1138.09 410.089 1134.04 413.71 1128.83 416.314C1123.67 418.919 1117.44 420.221 1110.16 420.221C1104.46 420.221 1099.35 419.244 1094.84 417.291C1090.32 415.297 1086.46 412.449 1083.24 408.746C1080.07 405.043 1077.65 400.567 1075.98 395.318C1074.31 390.069 1073.48 384.19 1073.48 377.679V371.515C1073.48 365.004 1074.33 359.125 1076.04 353.875C1077.79 348.586 1080.27 344.09 1083.49 340.387C1086.74 336.684 1090.63 333.836 1095.14 331.842C1099.66 329.848 1104.71 328.851 1110.28 328.851C1117.69 328.851 1123.93 330.194 1129.02 332.879C1134.14 335.565 1138.11 339.268 1140.92 343.988C1143.77 348.708 1145.48 354.079 1146.05 360.101H1127.74C1127.53 356.52 1126.82 353.489 1125.6 351.007C1124.38 348.484 1122.53 346.592 1120.05 345.331C1117.6 344.028 1114.35 343.377 1110.28 343.377C1107.23 343.377 1104.56 343.947 1102.28 345.086C1100.01 346.226 1098.09 347.955 1096.55 350.274C1095 352.594 1093.84 355.523 1093.07 359.063C1092.34 362.563 1091.97 366.673 1091.97 371.393V377.679C1091.97 382.277 1092.32 386.326 1093.01 389.825C1093.7 393.284 1094.76 396.214 1096.18 398.614C1097.65 400.974 1099.52 402.765 1101.8 403.985C1104.12 405.165 1106.9 405.755 1110.16 405.755C1113.98 405.755 1117.14 405.145 1119.62 403.924C1122.1 402.704 1123.99 400.893 1125.29 398.492C1126.64 396.091 1127.43 393.101 1127.67 389.52ZM1217.58 404.718V419H1170.28V404.718H1217.58ZM1176.26 330.133V419H1157.95V330.133H1176.26ZM1211.42 366.327V380.243H1170.28V366.327H1211.42ZM1217.52 330.133V344.476H1170.28V330.133H1217.52ZM1310.9 389.52H1329.15C1328.79 395.501 1327.14 400.812 1324.21 405.45C1321.32 410.089 1317.27 413.71 1312.06 416.314C1306.89 418.919 1300.67 420.221 1293.39 420.221C1287.69 420.221 1282.58 419.244 1278.07 417.291C1273.55 415.297 1269.68 412.449 1266.47 408.746C1263.29 405.043 1260.87 400.567 1259.21 395.318C1257.54 390.069 1256.7 384.19 1256.7 377.679V371.515C1256.7 365.004 1257.56 359.125 1259.27 353.875C1261.02 348.586 1263.5 344.09 1266.71 340.387C1269.97 336.684 1273.85 333.836 1278.37 331.842C1282.89 329.848 1287.93 328.851 1293.51 328.851C1300.91 328.851 1307.16 330.194 1312.25 332.879C1317.37 335.565 1321.34 339.268 1324.15 343.988C1327 348.708 1328.7 354.079 1329.27 360.101H1310.96C1310.76 356.52 1310.05 353.489 1308.83 351.007C1307.61 348.484 1305.76 346.592 1303.27 345.331C1300.83 344.028 1297.58 343.377 1293.51 343.377C1290.46 343.377 1287.79 343.947 1285.51 345.086C1283.23 346.226 1281.32 347.955 1279.77 350.274C1278.23 352.594 1277.07 355.523 1276.3 359.063C1275.56 362.563 1275.2 366.673 1275.2 371.393V377.679C1275.2 382.277 1275.54 386.326 1276.23 389.825C1276.93 393.284 1277.98 396.214 1279.41 398.614C1280.87 400.974 1282.74 402.765 1285.02 403.985C1287.34 405.165 1290.13 405.755 1293.39 405.755C1297.21 405.755 1300.36 405.145 1302.85 403.924C1305.33 402.704 1307.22 400.893 1308.52 398.492C1309.86 396.091 1310.66 393.101 1310.9 389.52ZM1414.17 372.491V376.703C1414.17 383.457 1413.26 389.52 1411.43 394.891C1409.6 400.262 1407.01 404.84 1403.68 408.624C1400.34 412.368 1396.35 415.236 1391.71 417.23C1387.11 419.224 1382.01 420.221 1376.39 420.221C1370.82 420.221 1365.71 419.224 1361.07 417.23C1356.48 415.236 1352.49 412.368 1349.11 408.624C1345.73 404.84 1343.11 400.262 1341.24 394.891C1339.41 389.52 1338.49 383.457 1338.49 376.703V372.491C1338.49 365.696 1339.41 359.633 1341.24 354.303C1343.07 348.932 1345.65 344.354 1348.99 340.57C1352.37 336.786 1356.35 333.897 1360.95 331.903C1365.59 329.909 1370.7 328.912 1376.27 328.912C1381.89 328.912 1386.99 329.909 1391.59 331.903C1396.23 333.897 1400.22 336.786 1403.55 340.57C1406.93 344.354 1409.54 348.932 1411.37 354.303C1413.24 359.633 1414.17 365.696 1414.17 372.491ZM1395.68 376.703V372.369C1395.68 367.649 1395.25 363.499 1394.4 359.918C1393.54 356.337 1392.28 353.326 1390.61 350.885C1388.95 348.443 1386.91 346.612 1384.51 345.392C1382.11 344.13 1379.36 343.5 1376.27 343.5C1373.18 343.5 1370.43 344.13 1368.03 345.392C1365.67 346.612 1363.66 348.443 1361.99 350.885C1360.36 353.326 1359.12 356.337 1358.27 359.918C1357.41 363.499 1356.98 367.649 1356.98 372.369V376.703C1356.98 381.382 1357.41 385.532 1358.27 389.154C1359.12 392.735 1360.38 395.766 1362.05 398.248C1363.72 400.689 1365.75 402.541 1368.15 403.802C1370.55 405.064 1373.3 405.694 1376.39 405.694C1379.49 405.694 1382.23 405.064 1384.63 403.802C1387.03 402.541 1389.05 400.689 1390.68 398.248C1392.3 395.766 1393.54 392.735 1394.4 389.154C1395.25 385.532 1395.68 381.382 1395.68 376.703ZM1435.72 330.133H1451.22L1474.05 395.379L1496.88 330.133H1512.38L1480.27 419H1467.82L1435.72 330.133ZM1427.36 330.133H1442.8L1445.61 393.731V419H1427.36V330.133ZM1505.3 330.133H1520.8V419H1502.49V393.731L1505.3 330.133ZM1571.46 387.323H1548.82V373.041H1571.46C1574.96 373.041 1577.81 372.471 1580.01 371.332C1582.2 370.152 1583.81 368.524 1584.83 366.449C1585.85 364.374 1586.35 362.034 1586.35 359.43C1586.35 356.785 1585.85 354.323 1584.83 352.044C1583.81 349.766 1582.2 347.935 1580.01 346.551C1577.81 345.168 1574.96 344.476 1571.46 344.476H1555.17V419H1536.85V330.133H1571.46C1578.42 330.133 1584.38 331.394 1589.34 333.917C1594.35 336.399 1598.17 339.837 1600.82 344.232C1603.46 348.626 1604.79 353.652 1604.79 359.308C1604.79 365.045 1603.46 370.009 1600.82 374.2C1598.17 378.391 1594.35 381.626 1589.34 383.905C1584.38 386.183 1578.42 387.323 1571.46 387.323ZM1643.42 345.331L1619.25 419H1599.78L1632.8 330.133H1645.19L1643.42 345.331ZM1663.5 419L1639.27 345.331L1637.32 330.133H1649.83L1683.03 419H1663.5ZM1662.4 385.919V400.262H1615.47V385.919H1662.4ZM1763.6 330.133V419H1745.29L1709.58 359.43V419H1691.27V330.133H1709.58L1745.35 389.764V330.133H1763.6ZM1790.03 330.133L1808.58 370.66L1827.14 330.133H1847.1L1817.86 386.651V419H1799.31V386.651L1770.01 330.133H1790.03Z" fill="#FF7401"/>
<path d="M705.982 149.022L669.244 261H639.649L689.84 125.922H708.673L705.982 149.022ZM736.505 261L699.674 149.022L696.705 125.922H715.724L766.192 261H736.505ZM734.835 210.717V232.519H663.492V210.717H734.835ZM851.637 125.922H879.376V215.17C879.376 225.561 877.149 234.312 872.696 241.425C868.305 248.537 862.213 253.887 854.42 257.475C846.689 261.062 837.783 262.855 827.701 262.855C817.62 262.855 808.652 261.062 800.797 257.475C793.004 253.887 786.881 248.537 782.428 241.425C778.036 234.312 775.841 225.561 775.841 215.17V125.922H803.673V215.17C803.673 221.231 804.632 226.179 806.549 230.014C808.466 233.848 811.218 236.662 814.806 238.456C818.455 240.25 822.753 241.146 827.701 241.146C832.773 241.146 837.071 240.25 840.597 238.456C844.184 236.662 846.905 233.848 848.761 230.014C850.678 226.179 851.637 221.231 851.637 215.17V125.922ZM943.761 261H914.352L914.537 239.291H943.761C951.059 239.291 957.213 237.652 962.223 234.374C967.232 231.034 971.005 226.179 973.541 219.809C976.139 213.438 977.438 205.738 977.438 196.708V190.121C977.438 183.194 976.695 177.102 975.211 171.845C973.788 166.588 971.655 162.165 968.81 158.578C965.965 154.991 962.47 152.3 958.326 150.507C954.182 148.651 949.42 147.724 944.039 147.724H913.795V125.922H944.039C953.069 125.922 961.326 127.468 968.81 130.561C976.355 133.591 982.88 137.951 988.385 143.642C993.889 149.332 998.126 156.135 1001.09 164.052C1004.13 171.907 1005.64 180.658 1005.64 190.307V196.708C1005.64 206.295 1004.13 215.046 1001.09 222.963C998.126 230.88 993.889 237.683 988.385 243.373C982.942 249.001 976.417 253.362 968.81 256.454C961.264 259.485 952.914 261 943.761 261ZM930.123 125.922V261H902.291V125.922H930.123ZM1055.46 125.922V261H1027.72V125.922H1055.46ZM1139.14 125.922V261H1111.4V125.922H1139.14ZM1180.7 125.922V147.724H1070.49V125.922H1180.7ZM1309.2 225.653C1309.2 223.241 1308.82 221.076 1308.08 219.159C1307.4 217.18 1306.1 215.386 1304.19 213.778C1302.27 212.108 1299.58 210.469 1296.11 208.861C1292.65 207.253 1288.17 205.583 1282.66 203.852C1276.54 201.872 1270.73 199.646 1265.22 197.172C1259.78 194.698 1254.95 191.822 1250.75 188.544C1246.6 185.204 1243.33 181.339 1240.91 176.947C1238.56 172.556 1237.39 167.453 1237.39 161.64C1237.39 156.011 1238.63 150.909 1241.1 146.332C1243.57 141.693 1247.04 137.735 1251.49 134.457C1255.94 131.117 1261.2 128.55 1267.26 126.757C1273.38 124.963 1280.1 124.066 1287.39 124.066C1297.35 124.066 1306.04 125.86 1313.46 129.447C1320.88 133.035 1326.64 137.951 1330.72 144.198C1334.86 150.445 1336.93 157.589 1336.93 165.629H1309.29C1309.29 161.671 1308.45 158.207 1306.78 155.238C1305.18 152.208 1302.7 149.826 1299.36 148.095C1296.08 146.363 1291.94 145.497 1286.93 145.497C1282.11 145.497 1278.09 146.239 1274.87 147.724C1271.65 149.146 1269.24 151.094 1267.63 153.568C1266.02 155.98 1265.22 158.702 1265.22 161.732C1265.22 164.021 1265.78 166.093 1266.89 167.948C1268.07 169.804 1269.8 171.535 1272.09 173.144C1274.37 174.752 1277.19 176.267 1280.53 177.689C1283.87 179.112 1287.73 180.504 1292.12 181.864C1299.49 184.091 1305.95 186.596 1311.51 189.379C1317.14 192.162 1321.84 195.285 1325.62 198.749C1329.39 202.213 1332.23 206.14 1334.15 210.531C1336.07 214.923 1337.03 219.901 1337.03 225.468C1337.03 231.343 1335.88 236.601 1333.59 241.239C1331.31 245.878 1328 249.805 1323.67 253.021C1319.34 256.238 1314.17 258.681 1308.17 260.351C1302.18 262.021 1295.46 262.855 1288.04 262.855C1281.36 262.855 1274.78 261.99 1268.28 260.258C1261.79 258.464 1255.88 255.774 1250.56 252.187C1245.31 248.599 1241.1 244.022 1237.95 238.456C1234.79 232.89 1233.21 226.303 1233.21 218.695H1261.14C1261.14 222.901 1261.79 226.457 1263.09 229.364C1264.39 232.271 1266.21 234.621 1268.56 236.415C1270.97 238.209 1273.82 239.507 1277.1 240.312C1280.44 241.116 1284.08 241.518 1288.04 241.518C1292.87 241.518 1296.83 240.837 1299.92 239.477C1303.07 238.116 1305.39 236.229 1306.88 233.817C1308.42 231.405 1309.2 228.684 1309.2 225.653ZM1446.59 239.291V261H1374.69V239.291H1446.59ZM1383.79 125.922V261H1355.95V125.922H1383.79ZM1437.22 180.937V202.089H1374.69V180.937H1437.22ZM1446.5 125.922V147.724H1374.69V125.922H1446.5ZM1462.83 125.922H1513.2C1523.53 125.922 1532.41 127.468 1539.83 130.561C1547.31 133.653 1553.07 138.23 1557.09 144.291C1561.11 150.352 1563.12 157.805 1563.12 166.649C1563.12 173.886 1561.88 180.102 1559.41 185.297C1556.99 190.43 1553.56 194.729 1549.11 198.192C1544.72 201.594 1539.55 204.315 1533.61 206.356L1524.8 210.995H1481.01L1480.83 189.286H1513.39C1518.28 189.286 1522.33 188.42 1525.54 186.688C1528.76 184.957 1531.17 182.545 1532.78 179.452C1534.45 176.36 1535.28 172.772 1535.28 168.69C1535.28 164.361 1534.48 160.619 1532.87 157.465C1531.26 154.311 1528.82 151.898 1525.54 150.229C1522.26 148.559 1518.15 147.724 1513.2 147.724H1490.66V261H1462.83V125.922ZM1538.35 261L1507.54 200.79L1536.95 200.604L1568.13 259.701V261H1538.35ZM1631.4 232.797L1663.22 125.922H1694.21L1647.17 261H1626.76L1631.4 232.797ZM1602.08 125.922L1633.81 232.797L1638.63 261H1618.04L1571.28 125.922H1602.08ZM1736.42 125.922V261H1708.68V125.922H1736.42ZM1840.79 216.19H1868.53C1867.97 225.282 1865.46 233.354 1861.01 240.404C1856.62 247.455 1850.47 252.96 1842.55 256.918C1834.69 260.876 1825.23 262.855 1814.16 262.855C1805.5 262.855 1797.74 261.371 1790.88 258.402C1784.01 255.372 1778.13 251.042 1773.25 245.414C1768.42 239.786 1764.74 232.982 1762.21 225.004C1759.67 217.025 1758.4 208.088 1758.4 198.192V188.822C1758.4 178.926 1759.7 169.989 1762.3 162.011C1764.96 153.97 1768.73 147.136 1773.62 141.508C1778.57 135.88 1784.47 131.55 1791.34 128.52C1798.2 125.489 1805.87 123.974 1814.35 123.974C1825.6 123.974 1835.1 126.015 1842.83 130.097C1850.62 134.179 1856.65 139.807 1860.92 146.981C1865.25 154.156 1867.85 162.32 1868.71 171.474H1840.88C1840.57 166.031 1839.49 161.423 1837.63 157.65C1835.78 153.816 1832.96 150.94 1829.19 149.022C1825.48 147.043 1820.53 146.054 1814.35 146.054C1809.71 146.054 1805.66 146.92 1802.19 148.651C1798.73 150.383 1795.82 153.012 1793.47 156.537C1791.12 160.062 1789.36 164.516 1788.18 169.896C1787.07 175.215 1786.51 181.462 1786.51 188.637V198.192C1786.51 205.181 1787.04 211.335 1788.09 216.654C1789.14 221.911 1790.75 226.365 1792.92 230.014C1795.14 233.601 1797.99 236.322 1801.45 238.178C1804.98 239.971 1809.21 240.868 1814.16 240.868C1819.97 240.868 1824.77 239.94 1828.54 238.085C1832.31 236.229 1835.19 233.477 1837.17 229.828C1839.21 226.179 1840.42 221.633 1840.79 216.19ZM1977.44 239.291V261H1905.54V239.291H1977.44ZM1914.63 125.922V261H1886.8V125.922H1914.63ZM1968.07 180.937V202.089H1905.54V180.937H1968.07ZM1977.35 125.922V147.724H1905.54V125.922H1977.35Z" fill="white"/>
<path fill-rule="evenodd" clip-rule="evenodd" d="M472.854 558.209L315.037 350.581H377.841L493.806 503.147L473.405 557.791L472.854 558.209Z" fill="#FF7401"/>
<path fill-rule="evenodd" clip-rule="evenodd" d="M305.806 117.186L328.243 146.33L590.192 486.581H527.091L311.061 205.976L216.449 364.581H158.229L286.963 148.773L305.806 117.186Z" fill="white"/>
<path fill-rule="evenodd" clip-rule="evenodd" d="M99.0619 118.792C171.528 35.429 297.853 26.5956 381.216 99.0619C409.524 123.67 429.223 154.451 440.077 187.665L496.264 206.88C486.738 152.309 459.074 100.493 414.019 61.3264C309.815 -29.2565 151.909 -18.2146 61.3264 85.989C-29.2565 190.193 -18.2146 348.098 85.989 438.681C131.124 477.916 186.4 498.101 241.863 499.878L243.465 449.904C199.079 448.482 154.931 432.361 118.792 400.946C35.429 328.479 26.5956 202.155 99.0619 118.792Z" fill="white"/>
</svg>
