<svg width="2007" height="559" viewBox="0 0 2007 559" fill="none" xmlns="http://www.w3.org/2000/svg">
<path d="M830.067 334.331L805.897 408H786.427L819.447 319.133H831.837L830.067 334.331ZM850.148 408L825.917 334.331L823.964 319.133H836.476L869.679 408H850.148ZM849.049 374.919V389.262H802.113V374.919H849.049ZM905.202 408H885.854L885.976 393.718H905.202C910.003 393.718 914.052 392.639 917.348 390.483C920.644 388.286 923.126 385.091 924.794 380.9C926.503 376.709 927.357 371.643 927.357 365.703V361.369C927.357 356.812 926.869 352.804 925.893 349.345C924.957 345.887 923.553 342.977 921.681 340.617C919.809 338.257 917.51 336.487 914.784 335.307C912.058 334.086 908.925 333.476 905.385 333.476H885.487V319.133H905.385C911.326 319.133 916.758 320.15 921.681 322.185C926.645 324.178 930.938 327.047 934.56 330.791C938.181 334.534 940.968 339.01 942.921 344.218C944.915 349.386 945.912 355.144 945.912 361.491V365.703C945.912 372.01 944.915 377.767 942.921 382.976C940.968 388.184 938.181 392.66 934.56 396.403C930.979 400.106 926.686 402.975 921.681 405.009C916.717 407.003 911.224 408 905.202 408ZM896.229 319.133V408H877.919V319.133H896.229ZM989.918 389.445L1010.85 319.133H1031.24L1000.29 408H986.867L989.918 389.445ZM970.631 319.133L991.505 389.445L994.679 408H981.129L950.368 319.133H970.631ZM1059.01 319.133V408H1040.76V319.133H1059.01ZM1127.67 378.52H1145.92C1145.56 384.501 1143.91 389.812 1140.98 394.45C1138.09 399.089 1134.04 402.71 1128.83 405.314C1123.67 407.919 1117.44 409.221 1110.16 409.221C1104.46 409.221 1099.35 408.244 1094.84 406.291C1090.32 404.297 1086.46 401.449 1083.24 397.746C1080.07 394.043 1077.65 389.567 1075.98 384.318C1074.31 379.069 1073.48 373.19 1073.48 366.679V360.515C1073.48 354.004 1074.33 348.125 1076.04 342.875C1077.79 337.586 1080.27 333.09 1083.49 329.387C1086.74 325.684 1090.63 322.836 1095.14 320.842C1099.66 318.848 1104.71 317.851 1110.28 317.851C1117.69 317.851 1123.93 319.194 1129.02 321.879C1134.14 324.565 1138.11 328.268 1140.92 332.988C1143.77 337.708 1145.48 343.079 1146.05 349.101H1127.74C1127.53 345.52 1126.82 342.489 1125.6 340.007C1124.38 337.484 1122.53 335.592 1120.05 334.331C1117.6 333.028 1114.35 332.377 1110.28 332.377C1107.23 332.377 1104.56 332.947 1102.28 334.086C1100.01 335.226 1098.09 336.955 1096.55 339.274C1095 341.594 1093.84 344.523 1093.07 348.063C1092.34 351.563 1091.97 355.673 1091.97 360.393V366.679C1091.97 371.277 1092.32 375.326 1093.01 378.825C1093.7 382.284 1094.76 385.214 1096.18 387.614C1097.65 389.974 1099.52 391.765 1101.8 392.985C1104.12 394.165 1106.9 394.755 1110.16 394.755C1113.98 394.755 1117.14 394.145 1119.62 392.924C1122.1 391.704 1123.99 389.893 1125.29 387.492C1126.64 385.091 1127.43 382.101 1127.67 378.52ZM1217.58 393.718V408H1170.28V393.718H1217.58ZM1176.26 319.133V408H1157.95V319.133H1176.26ZM1211.42 355.327V369.243H1170.28V355.327H1211.42ZM1217.52 319.133V333.476H1170.28V319.133H1217.52ZM1310.9 378.52H1329.15C1328.79 384.501 1327.14 389.812 1324.21 394.45C1321.32 399.089 1317.27 402.71 1312.06 405.314C1306.89 407.919 1300.67 409.221 1293.39 409.221C1287.69 409.221 1282.58 408.244 1278.07 406.291C1273.55 404.297 1269.68 401.449 1266.47 397.746C1263.29 394.043 1260.87 389.567 1259.21 384.318C1257.54 379.069 1256.7 373.19 1256.7 366.679V360.515C1256.7 354.004 1257.56 348.125 1259.27 342.875C1261.02 337.586 1263.5 333.09 1266.71 329.387C1269.97 325.684 1273.85 322.836 1278.37 320.842C1282.89 318.848 1287.93 317.851 1293.51 317.851C1300.91 317.851 1307.16 319.194 1312.25 321.879C1317.37 324.565 1321.34 328.268 1324.15 332.988C1327 337.708 1328.7 343.079 1329.27 349.101H1310.96C1310.76 345.52 1310.05 342.489 1308.83 340.007C1307.61 337.484 1305.76 335.592 1303.27 334.331C1300.83 333.028 1297.58 332.377 1293.51 332.377C1290.46 332.377 1287.79 332.947 1285.51 334.086C1283.23 335.226 1281.32 336.955 1279.77 339.274C1278.23 341.594 1277.07 344.523 1276.3 348.063C1275.56 351.563 1275.2 355.673 1275.2 360.393V366.679C1275.2 371.277 1275.54 375.326 1276.23 378.825C1276.93 382.284 1277.98 385.214 1279.41 387.614C1280.87 389.974 1282.74 391.765 1285.02 392.985C1287.34 394.165 1290.13 394.755 1293.39 394.755C1297.21 394.755 1300.36 394.145 1302.85 392.924C1305.33 391.704 1307.22 389.893 1308.52 387.492C1309.86 385.091 1310.66 382.101 1310.9 378.52ZM1414.17 361.491V365.703C1414.17 372.457 1413.26 378.52 1411.43 383.891C1409.6 389.262 1407.01 393.84 1403.68 397.624C1400.34 401.368 1396.35 404.236 1391.71 406.23C1387.11 408.224 1382.01 409.221 1376.39 409.221C1370.82 409.221 1365.71 408.224 1361.07 406.23C1356.48 404.236 1352.49 401.368 1349.11 397.624C1345.73 393.84 1343.11 389.262 1341.24 383.891C1339.41 378.52 1338.49 372.457 1338.49 365.703V361.491C1338.49 354.696 1339.41 348.633 1341.24 343.303C1343.07 337.932 1345.65 333.354 1348.99 329.57C1352.37 325.786 1356.35 322.897 1360.95 320.903C1365.59 318.909 1370.7 317.912 1376.27 317.912C1381.89 317.912 1386.99 318.909 1391.59 320.903C1396.23 322.897 1400.22 325.786 1403.55 329.57C1406.93 333.354 1409.54 337.932 1411.37 343.303C1413.24 348.633 1414.17 354.696 1414.17 361.491ZM1395.68 365.703V361.369C1395.68 356.649 1395.25 352.499 1394.4 348.918C1393.54 345.337 1392.28 342.326 1390.61 339.885C1388.95 337.443 1386.91 335.612 1384.51 334.392C1382.11 333.13 1379.36 332.5 1376.27 332.5C1373.18 332.5 1370.43 333.13 1368.03 334.392C1365.67 335.612 1363.66 337.443 1361.99 339.885C1360.36 342.326 1359.12 345.337 1358.27 348.918C1357.41 352.499 1356.98 356.649 1356.98 361.369V365.703C1356.98 370.382 1357.41 374.532 1358.27 378.154C1359.12 381.735 1360.38 384.766 1362.05 387.248C1363.72 389.689 1365.75 391.541 1368.15 392.802C1370.55 394.064 1373.3 394.694 1376.39 394.694C1379.49 394.694 1382.23 394.064 1384.63 392.802C1387.03 391.541 1389.05 389.689 1390.68 387.248C1392.3 384.766 1393.54 381.735 1394.4 378.154C1395.25 374.532 1395.68 370.382 1395.68 365.703ZM1435.72 319.133H1451.22L1474.05 384.379L1496.88 319.133H1512.38L1480.27 408H1467.82L1435.72 319.133ZM1427.36 319.133H1442.8L1445.61 382.731V408H1427.36V319.133ZM1505.3 319.133H1520.8V408H1502.49V382.731L1505.3 319.133ZM1571.46 376.323H1548.82V362.041H1571.46C1574.96 362.041 1577.81 361.471 1580.01 360.332C1582.2 359.152 1583.81 357.524 1584.83 355.449C1585.85 353.374 1586.35 351.034 1586.35 348.43C1586.35 345.785 1585.85 343.323 1584.83 341.044C1583.81 338.766 1582.2 336.935 1580.01 335.551C1577.81 334.168 1574.96 333.476 1571.46 333.476H1555.17V408H1536.85V319.133H1571.46C1578.42 319.133 1584.38 320.394 1589.34 322.917C1594.35 325.399 1598.17 328.837 1600.82 333.232C1603.46 337.626 1604.79 342.652 1604.79 348.308C1604.79 354.045 1603.46 359.009 1600.82 363.2C1598.17 367.391 1594.35 370.626 1589.34 372.905C1584.38 375.183 1578.42 376.323 1571.46 376.323ZM1643.42 334.331L1619.25 408H1599.78L1632.8 319.133H1645.19L1643.42 334.331ZM1663.5 408L1639.27 334.331L1637.32 319.133H1649.83L1683.03 408H1663.5ZM1662.4 374.919V389.262H1615.47V374.919H1662.4ZM1763.6 319.133V408H1745.29L1709.58 348.43V408H1691.27V319.133H1709.58L1745.35 378.764V319.133H1763.6ZM1790.03 319.133L1808.58 359.66L1827.14 319.133H1847.1L1817.86 375.651V408H1799.31V375.651L1770.01 319.133H1790.03Z" fill="#FF7401"/>
<path d="M705.982 138.022L669.244 250H639.649L689.84 114.922H708.673L705.982 138.022ZM736.505 250L699.674 138.022L696.705 114.922H715.724L766.192 250H736.505ZM734.835 199.717V221.519H663.492V199.717H734.835ZM851.637 114.922H879.376V204.17C879.376 214.561 877.149 223.312 872.696 230.425C868.305 237.537 862.213 242.887 854.42 246.475C846.689 250.062 837.783 251.855 827.701 251.855C817.62 251.855 808.652 250.062 800.797 246.475C793.004 242.887 786.881 237.537 782.428 230.425C778.036 223.312 775.841 214.561 775.841 204.17V114.922H803.673V204.17C803.673 210.231 804.632 215.179 806.549 219.014C808.466 222.848 811.218 225.662 814.806 227.456C818.455 229.25 822.753 230.146 827.701 230.146C832.773 230.146 837.071 229.25 840.597 227.456C844.184 225.662 846.905 222.848 848.761 219.014C850.678 215.179 851.637 210.231 851.637 204.17V114.922ZM943.761 250H914.352L914.537 228.291H943.761C951.059 228.291 957.213 226.652 962.223 223.374C967.232 220.034 971.005 215.179 973.541 208.809C976.139 202.438 977.438 194.738 977.438 185.708V179.121C977.438 172.194 976.695 166.102 975.211 160.845C973.788 155.588 971.655 151.165 968.81 147.578C965.965 143.991 962.47 141.3 958.326 139.507C954.182 137.651 949.42 136.724 944.039 136.724H913.795V114.922H944.039C953.069 114.922 961.326 116.468 968.81 119.561C976.355 122.591 982.88 126.951 988.385 132.642C993.889 138.332 998.126 145.135 1001.09 153.052C1004.13 160.907 1005.64 169.658 1005.64 179.307V185.708C1005.64 195.295 1004.13 204.046 1001.09 211.963C998.126 219.88 993.889 226.683 988.385 232.373C982.942 238.001 976.417 242.362 968.81 245.454C961.264 248.485 952.914 250 943.761 250ZM930.123 114.922V250H902.291V114.922H930.123ZM1055.46 114.922V250H1027.72V114.922H1055.46ZM1139.14 114.922V250H1111.4V114.922H1139.14ZM1180.7 114.922V136.724H1070.49V114.922H1180.7ZM1309.2 214.653C1309.2 212.241 1308.82 210.076 1308.08 208.159C1307.4 206.18 1306.1 204.386 1304.19 202.778C1302.27 201.108 1299.58 199.469 1296.11 197.861C1292.65 196.253 1288.17 194.583 1282.66 192.852C1276.54 190.872 1270.73 188.646 1265.22 186.172C1259.78 183.698 1254.95 180.822 1250.75 177.544C1246.6 174.204 1243.33 170.339 1240.91 165.947C1238.56 161.556 1237.39 156.453 1237.39 150.64C1237.39 145.011 1238.63 139.909 1241.1 135.332C1243.57 130.693 1247.04 126.735 1251.49 123.457C1255.94 120.117 1261.2 117.55 1267.26 115.757C1273.38 113.963 1280.1 113.066 1287.39 113.066C1297.35 113.066 1306.04 114.86 1313.46 118.447C1320.88 122.035 1326.64 126.951 1330.72 133.198C1334.86 139.445 1336.93 146.589 1336.93 154.629H1309.29C1309.29 150.671 1308.45 147.207 1306.78 144.238C1305.18 141.208 1302.7 138.826 1299.36 137.095C1296.08 135.363 1291.94 134.497 1286.93 134.497C1282.11 134.497 1278.09 135.239 1274.87 136.724C1271.65 138.146 1269.24 140.094 1267.63 142.568C1266.02 144.98 1265.22 147.702 1265.22 150.732C1265.22 153.021 1265.78 155.093 1266.89 156.948C1268.07 158.804 1269.8 160.535 1272.09 162.144C1274.37 163.752 1277.19 165.267 1280.53 166.689C1283.87 168.112 1287.73 169.504 1292.12 170.864C1299.49 173.091 1305.95 175.596 1311.51 178.379C1317.14 181.162 1321.84 184.285 1325.62 187.749C1329.39 191.213 1332.23 195.14 1334.15 199.531C1336.07 203.923 1337.03 208.901 1337.03 214.468C1337.03 220.343 1335.88 225.601 1333.59 230.239C1331.31 234.878 1328 238.805 1323.67 242.021C1319.34 245.238 1314.17 247.681 1308.17 249.351C1302.18 251.021 1295.46 251.855 1288.04 251.855C1281.36 251.855 1274.78 250.99 1268.28 249.258C1261.79 247.464 1255.88 244.774 1250.56 241.187C1245.31 237.599 1241.1 233.022 1237.95 227.456C1234.79 221.89 1233.21 215.303 1233.21 207.695H1261.14C1261.14 211.901 1261.79 215.457 1263.09 218.364C1264.39 221.271 1266.21 223.621 1268.56 225.415C1270.97 227.209 1273.82 228.507 1277.1 229.312C1280.44 230.116 1284.08 230.518 1288.04 230.518C1292.87 230.518 1296.83 229.837 1299.92 228.477C1303.07 227.116 1305.39 225.229 1306.88 222.817C1308.42 220.405 1309.2 217.684 1309.2 214.653ZM1446.59 228.291V250H1374.69V228.291H1446.59ZM1383.79 114.922V250H1355.95V114.922H1383.79ZM1437.22 169.937V191.089H1374.69V169.937H1437.22ZM1446.5 114.922V136.724H1374.69V114.922H1446.5ZM1462.83 114.922H1513.2C1523.53 114.922 1532.41 116.468 1539.83 119.561C1547.31 122.653 1553.07 127.23 1557.09 133.291C1561.11 139.352 1563.12 146.805 1563.12 155.649C1563.12 162.886 1561.88 169.102 1559.41 174.297C1556.99 179.43 1553.56 183.729 1549.11 187.192C1544.72 190.594 1539.55 193.315 1533.61 195.356L1524.8 199.995H1481.01L1480.83 178.286H1513.39C1518.28 178.286 1522.33 177.42 1525.54 175.688C1528.76 173.957 1531.17 171.545 1532.78 168.452C1534.45 165.36 1535.28 161.772 1535.28 157.69C1535.28 153.361 1534.48 149.619 1532.87 146.465C1531.26 143.311 1528.82 140.898 1525.54 139.229C1522.26 137.559 1518.15 136.724 1513.2 136.724H1490.66V250H1462.83V114.922ZM1538.35 250L1507.54 189.79L1536.95 189.604L1568.13 248.701V250H1538.35ZM1631.4 221.797L1663.22 114.922H1694.21L1647.17 250H1626.76L1631.4 221.797ZM1602.08 114.922L1633.81 221.797L1638.63 250H1618.04L1571.28 114.922H1602.08ZM1736.42 114.922V250H1708.68V114.922H1736.42ZM1840.79 205.19H1868.53C1867.97 214.282 1865.46 222.354 1861.01 229.404C1856.62 236.455 1850.47 241.96 1842.55 245.918C1834.69 249.876 1825.23 251.855 1814.16 251.855C1805.5 251.855 1797.74 250.371 1790.88 247.402C1784.01 244.372 1778.13 240.042 1773.25 234.414C1768.42 228.786 1764.74 221.982 1762.21 214.004C1759.67 206.025 1758.4 197.088 1758.4 187.192V177.822C1758.4 167.926 1759.7 158.989 1762.3 151.011C1764.96 142.97 1768.73 136.136 1773.62 130.508C1778.57 124.88 1784.47 120.55 1791.34 117.52C1798.2 114.489 1805.87 112.974 1814.35 112.974C1825.6 112.974 1835.1 115.015 1842.83 119.097C1850.62 123.179 1856.65 128.807 1860.92 135.981C1865.25 143.156 1867.85 151.32 1868.71 160.474H1840.88C1840.57 155.031 1839.49 150.423 1837.63 146.65C1835.78 142.816 1832.96 139.94 1829.19 138.022C1825.48 136.043 1820.53 135.054 1814.35 135.054C1809.71 135.054 1805.66 135.92 1802.19 137.651C1798.73 139.383 1795.82 142.012 1793.47 145.537C1791.12 149.062 1789.36 153.516 1788.18 158.896C1787.07 164.215 1786.51 170.462 1786.51 177.637V187.192C1786.51 194.181 1787.04 200.335 1788.09 205.654C1789.14 210.911 1790.75 215.365 1792.92 219.014C1795.14 222.601 1797.99 225.322 1801.45 227.178C1804.98 228.971 1809.21 229.868 1814.16 229.868C1819.97 229.868 1824.77 228.94 1828.54 227.085C1832.31 225.229 1835.19 222.477 1837.17 218.828C1839.21 215.179 1840.42 210.633 1840.79 205.19ZM1977.44 228.291V250H1905.54V228.291H1977.44ZM1914.63 114.922V250H1886.8V114.922H1914.63ZM1968.07 169.937V191.089H1905.54V169.937H1968.07ZM1977.35 114.922V136.724H1905.54V114.922H1977.35Z" fill="#203563"/>
<path fill-rule="evenodd" clip-rule="evenodd" d="M472.854 558.209L315.037 350.581H377.841L493.806 503.147L473.405 557.791L472.854 558.209Z" fill="#FF7401"/>
<path fill-rule="evenodd" clip-rule="evenodd" d="M305.806 117.186L328.243 146.33L590.192 486.581H527.091L311.061 205.976L216.449 364.581H158.229L286.963 148.773L305.806 117.186Z" fill="#203563"/>
<path fill-rule="evenodd" clip-rule="evenodd" d="M99.0619 118.792C171.528 35.429 297.853 26.5956 381.216 99.0619C409.524 123.67 429.223 154.451 440.077 187.665L496.264 206.88C486.738 152.309 459.074 100.493 414.019 61.3264C309.815 -29.2565 151.909 -18.2146 61.3264 85.989C-29.2565 190.193 -18.2146 348.098 85.989 438.681C131.124 477.916 186.4 498.101 241.863 499.878L243.465 449.904C199.079 448.482 154.931 432.361 118.792 400.946C35.429 328.479 26.5956 202.155 99.0619 118.792Z" fill="#203563"/>
</svg>
